<svg xmlns="http://www.w3.org/2000/svg" width="0" height="0">
    <defs>
        <symbol id="play" fill="currentColor" viewBox="0 0 14 16">
            <path d="M2.18.21A1.43,1.43,0,0,0,0,1.41V14.59a1.43,1.43,0,0,0,2.18,1.2L13.31,9.2a1.39,1.39,0,0,0,0-2.4Z" />
        </symbol>

        <symbol id="pencil" fill="currentColor" viewBox="0 0 14 14">
            <path d="M9.52617 0.56604C10.2809 -0.188679 11.5045 -0.188681 12.2593 0.566039L13.434 1.74075C14.1887 2.49547 14.1887 3.71911 13.434 4.47383L11.8137 6.0941L7.906 2.18642L7.16062 2.93181L11.0683 6.83949L4.47382 13.434C4.1114 13.7964 3.61984 14 3.10729 14H0.527067C0.235976 14 0 13.764 0 13.4729V10.8927C0 10.3802 0.20361 9.8886 0.566039 9.52618L9.52617 0.56604Z" />
        </symbol>

        <symbol id="close-simple" fill="currentColor" viewBox="0 0 8 8">
            <path d="M.2.2a.69.69,0,0,1,1,0L4,3,6.82.2a.69.69,0,1,1,1,1L5,4,7.8,6.82a.69.69,0,1,1-1,1L4,5,1.18,7.8a.69.69,0,1,1-1-1L3,4,.2,1.18A.69.69,0,0,1,.2.2Z" />
        </symbol>

        <symbol id="close" fill="currentColor" viewBox="0 0 14.23 14.23">
            <path d="M8.88,6.1a.75.75,0,0,0,.53-.22L14,1.28A.75.75,0,1,0,13,.22l-4.6,4.6a.75.75,0,0,0,0,1.06A.79.79,0,0,0,8.88,6.1Z" />
            <path d="M4.82,8.35.22,13A.75.75,0,0,0,.22,14a.75.75,0,0,0,1.06,0l4.6-4.6A.75.75,0,1,0,4.82,8.35Z" />
            <path d="M1.28.22A.75.75,0,0,0,.22,1.28l4.6,4.6a.77.77,0,0,0,.53.22.79.79,0,0,0,.53-.22.75.75,0,0,0,0-1.06Z" />
            <path d="M14,13,9.42,8.35a.77.77,0,0,0-1.07,0,.75.75,0,0,0,0,1.06L13,14A.75.75,0,0,0,14,14,.75.75,0,0,0,14,13Z" />
        </symbol>

        <symbol id="chevron-left" fill="currentColor" viewBox="0 0 5 10">
            <path d="M4.78,9.77a.7.7,0,0,1-1,0L.5,6.3a1.93,1.93,0,0,1,0-2.6L3.74.23a.7.7,0,0,1,1,0,.83.83,0,0,1,0,1.12L1.55,4.81a.28.28,0,0,0,0,.38L4.78,8.65A.83.83,0,0,1,4.78,9.77Z" />
        </symbol>

        <symbol id="chevron-right" fill="currentColor" viewBox="0 0 5 10">
            <path d="M.22.23a.7.7,0,0,1,1,0L4.5,3.7a1.93,1.93,0,0,1,0,2.6L1.26,9.77a.7.7,0,0,1-1,0,.83.83,0,0,1,0-1.12L3.45,5.19a.28.28,0,0,0,0-.38L.22,1.35A.83.83,0,0,1,.22.23Z" />
        </symbol>

        <symbol id="chevron-bottom" fill="currentColor" viewBox="0 0 10 5">
            <path d="M9.77.22a.7.7,0,0,1,0,1L6.3,4.5a1.93,1.93,0,0,1-2.6,0L.23,1.26a.7.7,0,0,1,0-1,.83.83,0,0,1,1.12,0L4.81,3.45a.28.28,0,0,0,.38,0L8.65.22A.83.83,0,0,1,9.77.22Z" />
        </symbol>

        <symbol id="check" fill="currentColor" viewBox="0 0 13.25 11.25">
            <path d="M4.68,11.25a.6.6,0,0,1-.38-.13L.24,8a.62.62,0,0,1-.11-.87A.63.63,0,0,1,1,7L4.57,9.75,12.14.24A.61.61,0,0,1,13,.14a.61.61,0,0,1,.1.87L5.17,11A.62.62,0,0,1,4.68,11.25Z" />
        </symbol>

        <symbol id="alert" viewBox="0 0 13 11" fill="currentColor">
            <path d="M12.75,8.47,8,.82a1.78,1.78,0,0,0-3,0L.25,8.47A1.67,1.67,0,0,0,1.75,11h9.5A1.67,1.67,0,0,0,12.75,8.47ZM6,4.16a.48.48,0,0,1,1,0V6.59a.48.48,0,0,1-1,0ZM6.5,8.87a.62.62,0,0,1-.63-.61.63.63,0,0,1,1.26,0A.62.62,0,0,1,6.5,8.87Z" />
        </symbol>

        <symbol id="plus" fill="currentColor" viewBox="0 0 18.5 18.5">
            <path d="M9.25,18.5a.76.76,0,0,1-.75-.75V10H.75a.75.75,0,0,1,0-1.5H8.5V.75a.75.75,0,0,1,1.5,0V8.5h7.75a.75.75,0,0,1,0,1.5H10v7.75A.76.76,0,0,1,9.25,18.5Z" />
        </symbol>

        <symbol id="lock-outline" fill="currentColor" viewBox="0 0 12 15">
            <path d="M2.63,3.41a3.36,3.36,0,1,1,6.72,0V4.64H8V3.49A2.14,2.14,0,0,0,6.2,1.34,2.06,2.06,0,0,0,3.94,3.41V4.64H9.61A2.41,2.41,0,0,1,12,7.07v5.5A2.41,2.41,0,0,1,9.61,15H2.39A2.41,2.41,0,0,1,0,12.57V7.07A2.41,2.41,0,0,1,2.39,4.64h.24ZM2.39,5.84A1.23,1.23,0,0,0,1.18,7.07v5.5A1.23,1.23,0,0,0,2.39,13.8H9.61a1.23,1.23,0,0,0,1.21-1.23V7.07A1.24,1.24,0,0,0,9.6,5.84Z" />
        </symbol>

        <symbol id="unlock-outline" fill="currentColor" viewBox="0 0 15 15">
            <path d="M8.18,3.41a3.41,3.41,0,0,1,6.82,0V8a.66.66,0,0,1-1.32,0V3.49A2.15,2.15,0,0,0,11.8,1.34,2.08,2.08,0,0,0,9.51,3.41V4.64h.25a2.43,2.43,0,0,1,2.43,2.43v5.5A2.43,2.43,0,0,1,9.76,15H2.43A2.43,2.43,0,0,1,0,12.57V7.07A2.43,2.43,0,0,1,2.43,4.64H8.18ZM2.43,5.84A1.24,1.24,0,0,0,1.2,7.07v5.5A1.24,1.24,0,0,0,2.43,13.8H9.76A1.24,1.24,0,0,0,11,12.57V7.07A1.25,1.25,0,0,0,9.75,5.84Z" />
        </symbol>

        <symbol viewBox="0 0 13 11" id="danger" fill="currentColor">
            <path d="M12.75,8.47,8,.82a1.78,1.78,0,0,0-3,0L.25,8.47A1.67,1.67,0,0,0,1.75,11h9.5A1.67,1.67,0,0,0,12.75,8.47ZM6,4.16a.48.48,0,0,1,1,0V6.59a.48.48,0,0,1-1,0ZM6.5,8.87a.62.62,0,0,1-.63-.61.63.63,0,0,1,1.26,0A.62.62,0,0,1,6.5,8.87Z" />
        </symbol>

        <symbol id="eye" fill="currentColor" viewBox="0 0 20 15">
            <path d="M19.68,6.33C17.28,2.17,13.69,0,10,0S2.72,2.17.32,6.33a2.28,2.28,0,0,0,0,2.34C2.72,12.83,6.31,15,10,15s7.28-2.17,9.68-6.33A2.28,2.28,0,0,0,19.68,6.33ZM10,10.9a3.4,3.4,0,1,1,3.45-3.4A3.43,3.43,0,0,1,10,10.9Z" />
        </symbol>

        <symbol id="login" fill="currentColor" viewBox="0 0 20 20">
            <path d="M16.9264 1.71429L13.0476 1.71429C12.5742 1.71429 12.1905 1.33053 12.1905 0.857143C12.1905 0.383756 12.5742 2.04359e-07 13.0476 1.36239e-07L16.9264 0C18.6239 -6.81196e-08 20 1.37609 20 3.07359V16.9264C20 18.6239 18.6239 20 16.9264 20H13.0476C12.5742 20 12.1905 19.6162 12.1905 19.1429C12.1905 18.6695 12.5742 18.2857 13.0476 18.2857H16.9264C17.6771 18.2857 18.2857 17.6771 18.2857 16.9264V3.07359C18.2857 2.32287 17.6771 1.71429 16.9264 1.71429ZM8.8398 5.51512C9.17453 5.18039 9.71725 5.18039 10.052 5.51512L13.9308 9.39392C14.0915 9.55467 14.1818 9.77269 14.1818 10C14.1818 10.2273 14.0915 10.4454 13.9308 10.6061L10.052 14.4849C9.71725 14.8196 9.17453 14.8196 8.8398 14.4849C8.50506 14.1501 8.50506 13.6074 8.8398 13.2727L11.2553 10.8572H0.857143C0.383756 10.8572 0 10.4734 0 10C0 9.52663 0.383756 9.14287 0.857143 9.14287H11.2554L8.8398 6.72731C8.50506 6.39257 8.50506 5.84986 8.8398 5.51512Z" />
        </symbol>

        </defs>
</svg>