<svg xmlns="http://www.w3.org/2000/svg" xmlns:xlink="http://www.w3.org/1999/xlink" width="0" height="0">
    <defs>
        <symbol id="studio/add-asset" fill="currentColor" viewBox="0 0 19 19" xmlns="http://www.w3.org/2000/svg">
            <path
                d="M4.07,0H14.93c.58,0,1.05,0,1.44,0a2.75,2.75,0,0,1,1.1.28,2.87,2.87,0,0,1,1.22,1.22A2.75,2.75,0,0,1,19,2.63c0,.39,0,.86,0,1.44V14.93c0,.58,0,1.05,0,1.44a2.75,2.75,0,0,1-.28,1.1,2.87,2.87,0,0,1-1.22,1.22,2.75,2.75,0,0,1-1.1.28c-.39,0-.86,0-1.44,0H4.07C3.49,19,3,19,2.63,19a2.75,2.75,0,0,1-1.1-.28A2.87,2.87,0,0,1,.31,17.47,2.75,2.75,0,0,1,0,16.37c0-.39,0-.86,0-1.44V4.07C0,3.49,0,3,0,2.63a2.75,2.75,0,0,1,.28-1.1A2.87,2.87,0,0,1,1.53.31,2.75,2.75,0,0,1,2.63,0C3,0,3.49,0,4.07,0ZM2.74,1.36a1.68,1.68,0,0,0-.6.14,1.42,1.42,0,0,0-.64.64,1.68,1.68,0,0,0-.14.6c0,.33,0,.74,0,1.35V14.91c0,.61,0,1,0,1.35a1.68,1.68,0,0,0,.14.6,1.42,1.42,0,0,0,.64.64,1.68,1.68,0,0,0,.6.14c.33,0,.74,0,1.35,0H14.91c.61,0,1,0,1.35,0a1.68,1.68,0,0,0,.6-.14,1.42,1.42,0,0,0,.64-.64,1.68,1.68,0,0,0,.14-.6c0-.33,0-.74,0-1.35V4.09c0-.61,0-1,0-1.35a1.68,1.68,0,0,0-.14-.6,1.42,1.42,0,0,0-.64-.64,1.68,1.68,0,0,0-.6-.14c-.33,0-.74,0-1.35,0H4.09C3.48,1.34,3.07,1.34,2.74,1.36Zm6.76,4a.67.67,0,0,1,.67.67v2.8H13a.67.67,0,0,1,0,1.34H10.17V13a.67.67,0,0,1-1.34,0v-2.8H6A.67.67,0,0,1,6,8.83h2.8V6A.67.67,0,0,1,9.5,5.36Z" />
        </symbol>
        <symbol id="studio/add-asset-filled" fill="currentColor" viewBox="0 0 22 22" xmlns="http://www.w3.org/2000/svg">
            <path class="cls-1"
                d="M4.79,0H17.21c.65,0,1.2,0,1.64,0A3.23,3.23,0,0,1,22,3.15c0,.44,0,1,0,1.64V17.21c0,.65,0,1.2,0,1.64A3.23,3.23,0,0,1,18.85,22c-.44,0-1,0-1.64,0H4.79c-.65,0-1.2,0-1.64,0A3.23,3.23,0,0,1,0,18.85c0-.44,0-1,0-1.64V4.79c0-.65,0-1.2,0-1.64A3.23,3.23,0,0,1,3.15,0C3.59,0,4.14,0,4.79,0ZM15,11.92a.92.92,0,0,0,0-1.84H11.92V7a.92.92,0,0,0-1.84,0v3H7a.92.92,0,0,0,0,1.84h3v3a.92.92,0,0,0,1.84,0v-3Z" />
        </symbol>
        <symbol id="studio/add-user" fill="currentColor" xmlns="http://www.w3.org/2000/svg" viewBox="0 0 22 15">
            <path
                d="M18.75,8.5A.75.75,0,0,1,18,7.75V6.5H16.75a.75.75,0,0,1,0-1.5H18V3.75a.75.75,0,0,1,1.5,0V5h1.25a.75.75,0,0,1,0,1.5H19.5V7.75A.76.76,0,0,1,18.75,8.5Z" />
            <path
                d="M15.15,14.5V13a1,1,0,0,0,.78-.36.41.41,0,0,0,0-.4A5.17,5.17,0,0,0,13,9.45L13.53,8a6.69,6.69,0,0,1,3.81,3.61,1.88,1.88,0,0,1-.16,1.81A2.43,2.43,0,0,1,15.15,14.5Zm-4.67,0H2.63A2.71,2.71,0,0,1,.32,13.27a2,2,0,0,1-.1-2h0A7,7,0,0,1,6.56,7.43a7,7,0,0,1,6.34,3.82,2,2,0,0,1-.11,2A2.7,2.7,0,0,1,10.48,14.48ZM1.57,11.9h0a.57.57,0,0,0,0,.58,1.25,1.25,0,0,0,1,.5h7.85a1.24,1.24,0,0,0,1-.5.55.55,0,0,0,0-.58,5.47,5.47,0,0,0-5-3A5.49,5.49,0,0,0,1.57,11.9Zm9.28-5.2V5.2a1.85,1.85,0,1,0,0-3.7V0a3.35,3.35,0,1,1,0,6.7Zm-4.29,0A3.35,3.35,0,1,1,9.92,3.35,3.36,3.36,0,0,1,6.56,6.7Zm0-5.2A1.85,1.85,0,1,0,8.42,3.35,1.86,1.86,0,0,0,6.56,1.5Z" />
        </symbol>
        <symbol id="studio/warning" fill="currentColor" xmlns="http://www.w3.org/2000/svg" viewBox="0 0 13 11">
            <path
                d="M12.75,8.47,8,.82a1.78,1.78,0,0,0-3,0L.25,8.47A1.67,1.67,0,0,0,1.75,11h9.5A1.67,1.67,0,0,0,12.75,8.47ZM6,4.16a.48.48,0,0,1,1,0V6.59a.48.48,0,0,1-1,0ZM6.5,8.87a.62.62,0,0,1-.63-.61.63.63,0,0,1,1.26,0A.62.62,0,0,1,6.5,8.87Z" />
        </symbol>
        <symbol id="studio/worlds" fill="currentColor" viewBox="0 0 19 16" xmlns="http://www.w3.org/2000/svg">
            <path
                d="M19,4.74a1.16,1.16,0,0,0-.54-.68,2,2,0,0,0-.65-.25,6,6,0,0,0-1.19-.11A8.24,8.24,0,0,0,7.6.27a8,8,0,0,0-6,7.35,6.13,6.13,0,0,0-1,.67,2,2,0,0,0-.44.55A1.12,1.12,0,0,0,0,9.71a1.21,1.21,0,0,0,.67.75,2.71,2.71,0,0,0,.81.23l.53.05a8.22,8.22,0,0,0,9.78,5,8,8,0,0,0,5.92-9.09l.42-.29a3.15,3.15,0,0,0,.6-.61A1.19,1.19,0,0,0,19,4.74ZM3.21,9.18a7,7,0,0,1-.12-1.11A6.46,6.46,0,0,1,8,1.77a6.72,6.72,0,0,1,7.5,3.09,7,7,0,0,1,.46,1l-.3.15A37.18,37.18,0,0,1,9.73,8,37.89,37.89,0,0,1,3.58,9.16Zm8.23,5.05A6.69,6.69,0,0,1,3.71,10.7a39.85,39.85,0,0,0,6.41-1.17,40.1,40.1,0,0,0,6.17-2.11h0A6.45,6.45,0,0,1,11.44,14.23Z" />
        </symbol>
        <symbol id="studio/users" xmlns="http://www.w3.org/2000/svg" fill="none" viewBox="0 0 19 16">
            <path stroke="#fff" strokeWidth="1.5"
                d="M11.737 1a2.79 2.79 0 012.779 2.8 2.79 2.79 0 01-2.78 2.8m2.581 3.007c1.65.589 2.956 1.971 3.576 3.446C18.321 14.07 17.4 15 16.303 15M7.17 6.6a2.79 2.79 0 01-2.78-2.8A2.79 2.79 0 017.172 1 2.79 2.79 0 019.95 3.8a2.79 2.79 0 01-2.78 2.8zm-6.017 6.056C2.158 10.547 4.474 9 7.17 9c2.696 0 5.013 1.547 6.017 3.656.57 1.195-.533 2.319-1.848 2.319H3.002c-1.315 0-2.418-1.124-1.848-2.319z">
            </path>
        </symbol>
        <symbol id="studio/add-icon" fill="currentColor" xmlns="http://www.w3.org/2000/svg" viewBox="0 0 12.25 12.25">
            <path
                d="M11.62,5.5H6.75V.62A.63.63,0,0,0,5.5.62V5.5H.62a.63.63,0,0,0,0,1.25H5.5v4.87a.63.63,0,1,0,1.25,0V6.75h4.87a.63.63,0,1,0,0-1.25Z" />
        </symbol>
        <symbol id="studio/layers" xmlns="http://www.w3.org/2000/svg" fill="currentColor" viewBox="0 0 20.08 18">
            <path
                d="M10.13,1.53a.28.28,0,0,0-.18,0L1.7,4.73a.25.25,0,0,0,0,.47L10,8.41a.28.28,0,0,0,.18,0L18.38,5.2a.25.25,0,0,0,0-.47ZM9.41.12a1.71,1.71,0,0,1,1.26,0l8.25,3.2a1.77,1.77,0,0,1,0,3.29L10.67,9.82a1.71,1.71,0,0,1-1.26,0L1.16,6.61a1.77,1.77,0,0,1,0-3.29Z" />
            <path
                d="M18.92,10.65l-8.25,3.2a1.71,1.71,0,0,1-1.26,0l-8.25-3.2A1.77,1.77,0,0,1,0,8.61l9.83,3.82h.23L20,8.61A1.77,1.77,0,0,1,18.92,10.65Z" />
            <path
                d="M18.92,14.68l-8.25,3.2a1.71,1.71,0,0,1-1.26,0l-8.25-3.2a1.75,1.75,0,0,1-1.08-2l9.83,3.81a.21.21,0,0,0,.11,0h0a.29.29,0,0,0,.13,0L20,12.65A1.76,1.76,0,0,1,18.92,14.68Z" />
        </symbol>
        <symbol id="studio/code" fill="currentColor" viewBox="0 0 19 19" xmlns="http://www.w3.org/2000/svg">
            <path
                d="M0,2.81A2.81,2.81,0,0,1,2.81,0H16.19A2.81,2.81,0,0,1,19,2.81V16.19A2.81,2.81,0,0,1,16.19,19H2.81A2.81,2.81,0,0,1,0,16.19ZM2.81,1.34A1.47,1.47,0,0,0,1.34,2.81V16.19a1.47,1.47,0,0,0,1.47,1.47H16.19a1.47,1.47,0,0,0,1.47-1.47V2.81a1.47,1.47,0,0,0-1.47-1.47ZM8.1,5.82a.66.66,0,0,1,0,.94L5.65,9.22a.39.39,0,0,0,0,.56L8.1,12.24a.67.67,0,1,1-.95.94L4.7,10.73a1.74,1.74,0,0,1,0-2.46L7.15,5.82A.66.66,0,0,1,8.1,5.82Zm2.8,0a.66.66,0,0,1,.95,0L14.3,8.27a1.74,1.74,0,0,1,0,2.46l-2.45,2.45a.67.67,0,1,1-.95-.94l2.45-2.46a.39.39,0,0,0,0-.56L10.9,6.76A.66.66,0,0,1,10.9,5.82Z" />
        </symbol>
        <symbol id="studio/code-filled" fill="currentColor" viewBox="0 0 22 22" xmlns="http://www.w3.org/2000/svg">
            <path class="cls-1"
                d="M18.64,0H3.36A3.35,3.35,0,0,0,0,3.36V18.64A3.35,3.35,0,0,0,3.36,22H18.64A3.35,3.35,0,0,0,22,18.64V3.36A3.35,3.35,0,0,0,18.64,0ZM6.71,11.22,9.51,14a.91.91,0,0,1,0,1.29.92.92,0,0,1-1.3,0l-2.8-2.8a2.14,2.14,0,0,1,0-3l2.8-2.8a.92.92,0,0,1,1.3,0A.91.91,0,0,1,9.51,8l-2.8,2.8A.31.31,0,0,0,6.71,11.22Zm9.88,1.29-2.8,2.8a.92.92,0,0,1-1.3,0,.91.91,0,0,1,0-1.29l2.8-2.8a.31.31,0,0,0,0-.44L12.49,8a.91.91,0,0,1,0-1.29.92.92,0,0,1,1.3,0l2.8,2.8A2.14,2.14,0,0,1,16.59,12.51Z" />
        </symbol>
        <symbol id="studio/reset" fill="currentColor" viewBox="0 0 16 17" xmlns="http://www.w3.org/2000/svg">
            <path d="M8.89,17A.95.95,0,1,0,8,16.06.92.92,0,0,0,8.89,17Z" />
            <path d="M16,7.56a.89.89,0,1,0-.89.94A.92.92,0,0,0,16,7.56Z" />
            <path
                d="M15.05,10.64a1,1,0,0,1,.32,1.29.86.86,0,0,1-1.21.35A1,1,0,0,1,13.83,11,.87.87,0,0,1,15.05,10.64Z" />
            <path
                d="M12.77,15.39a1,1,0,0,0,.33-1.29.87.87,0,0,0-1.22-.35A1,1,0,0,0,11.56,15,.86.86,0,0,0,12.77,15.39Z" />
            <path d="M14.16,4.72a.87.87,0,0,1-1.22-.34,1,1,0,0,1,.33-1.29.86.86,0,0,1,1.21.34A1,1,0,0,1,14.16,4.72Z" />
            <path
                d="M8,1.42A6.89,6.89,0,0,0,1.33,8.5a7.15,7.15,0,0,0,3.56,6.27V11.1a.67.67,0,1,1,1.33,0v5.19a.69.69,0,0,1-.66.71H.67a.71.71,0,0,1,0-1.42H3.58A8.62,8.62,0,0,1,0,8.5,8.26,8.26,0,0,1,8,0a7.58,7.58,0,0,1,3.15.68.73.73,0,0,1,.35.94.66.66,0,0,1-.87.37A6.31,6.31,0,0,0,8,1.42Z" />
        </symbol>
        <symbol id="studio/search" xmlns="http://www.w3.org/2000/svg" fill="currentColor" viewBox="0 0 18 18">
            <path
                d="M8.11,1.54a6.58,6.58,0,1,0,6.57,6.57A6.57,6.57,0,0,0,8.11,1.54ZM0,8.11a8.12,8.12,0,1,1,14.37,5.17l3.4,3.4a.77.77,0,1,1-1.09,1.09l-3.4-3.4A8.11,8.11,0,0,1,0,8.11Z" />
        </symbol>
        <symbol xmlns="http://www.w3.org/2000/svg" id="studio/filters" fill="currentColor" viewBox="0 0 20 17">
            <path
                d="M3.92065 0C4.29381 0 4.59632 0.30203 4.59632 0.674603V14.6961L6.68426 12.6104C6.94806 12.3469 7.37587 12.3468 7.63981 12.6102C7.90375 12.8735 7.90386 13.3007 7.64006 13.5642L4.39855 16.8023C4.27187 16.9288 4.10003 17 3.92083 17C3.74163 17 3.56975 16.929 3.443 16.8025L0.198028 13.5644C-0.0659099 13.3011 -0.0660239 12.8739 0.197774 12.6104C0.461571 12.3469 0.889385 12.3468 1.15332 12.6102L3.24497 14.6974V0.674603C3.24497 0.30203 3.54748 0 3.92065 0ZM9.45946 2.83333C9.45946 2.46076 9.76197 2.15873 10.1351 2.15873H19.3243C19.6975 2.15873 20 2.46076 20 2.83333C20 3.20591 19.6975 3.50794 19.3243 3.50794H10.1351C9.76197 3.50794 9.45946 3.20591 9.45946 2.83333ZM11.6216 8.5C11.6216 8.12743 11.9241 7.8254 12.2973 7.8254H19.3243C19.6975 7.8254 20 8.12743 20 8.5C20 8.87257 19.6975 9.1746 19.3243 9.1746H12.2973C11.9241 9.1746 11.6216 8.87257 11.6216 8.5ZM13.7838 14.1667C13.7838 13.7941 14.0863 13.4921 14.4595 13.4921H19.3243C19.6975 13.4921 20 13.7941 20 14.1667C20 14.5392 19.6975 14.8413 19.3243 14.8413H14.4595C14.0863 14.8413 13.7838 14.5392 13.7838 14.1667Z" />
        </symbol>
        <symbol id="studio/resize" xmlns="http://www.w3.org/2000/svg" width="14" height="14" viewBox="0 0 14 14"
            fill="none">
            <path fillRule="evenodd" clipRule="evenodd"
                d="M3.11111 1.55556C3.11111 0.696446 2.41467 0 1.55556 0C0.696446 0 0 0.696446 0 1.55556C0 2.41467 0.696445 3.11111 1.55556 3.11111C2.41467 3.11111 3.11111 2.41467 3.11111 1.55556ZM8.55556 7C8.55556 6.14089 7.85911 5.44444 7 5.44444C6.14089 5.44444 5.44444 6.14089 5.44444 7C5.44444 7.85911 6.14089 8.55556 7 8.55556C7.85911 8.55556 8.55556 7.85911 8.55556 7ZM3.11111 7C3.11111 6.14089 2.41467 5.44444 1.55556 5.44444C0.696446 5.44444 0 6.14089 0 7C0 7.85911 0.696445 8.55556 1.55556 8.55556C2.41467 8.55556 3.11111 7.85911 3.11111 7ZM14 12.4444C14 11.5853 13.3036 10.8889 12.4444 10.8889C11.5853 10.8889 10.8889 11.5853 10.8889 12.4444C10.8889 13.3036 11.5853 14 12.4444 14C13.3036 14 14 13.3036 14 12.4444ZM8.55556 12.4444C8.55556 11.5853 7.85911 10.8889 7 10.8889C6.14089 10.8889 5.44444 11.5853 5.44444 12.4444C5.44444 13.3036 6.14089 14 7 14C7.85911 14 8.55556 13.3036 8.55556 12.4444ZM3.11111 12.4444C3.11111 11.5853 2.41467 10.8889 1.55556 10.8889C0.696446 10.8889 0 11.5853 0 12.4444C0 13.3036 0.696445 14 1.55556 14C2.41467 14 3.11111 13.3036 3.11111 12.4444Z"
                fill="#4C4C4C" />
        </symbol>
        <symbol id="studio/settings" fill="currentColor" xmlns="http://www.w3.org/2000/svg" viewBox="0 0 14 14">
            <path
                d="M13.23,5.56l-.6-.4a.89.89,0,0,1-.37-.93l.12-.49a1.78,1.78,0,0,0-2.12-2.12l-.49.12a.89.89,0,0,1-.93-.37l-.4-.6a1.73,1.73,0,0,0-2.88,0l-.4.6a.89.89,0,0,1-.93.37l-.49-.12A1.78,1.78,0,0,0,1.62,3.74l.12.49a.89.89,0,0,1-.37.93l-.6.4a1.73,1.73,0,0,0,0,2.88l.6.4a.89.89,0,0,1,.37.93l-.12.49a1.78,1.78,0,0,0,2.12,2.12l.49-.12a.89.89,0,0,1,.93.37l.4.6a1.73,1.73,0,0,0,2.88,0l.4-.6a.89.89,0,0,1,.93-.37l.49.12a1.78,1.78,0,0,0,2.12-2.12l-.12-.49a.89.89,0,0,1,.37-.93l.6-.4a1.73,1.73,0,0,0,0-2.88ZM7,9.19A2.19,2.19,0,1,1,9.19,7,2.19,2.19,0,0,1,7,9.19Z" />
        </symbol>
        <symbol xmlns="http://www.w3.org/2000/svg" id="studio/trash" fill="currentColor" viewBox="0 0 13.25 15.25">
            <path
                d="M12.62,2.27H9.37A2.84,2.84,0,0,0,6.62,0,2.84,2.84,0,0,0,3.88,2.27H.62a.63.63,0,0,0,0,1.25h.83v9.59a2.11,2.11,0,0,0,2.08,2.14H9.72a2.11,2.11,0,0,0,2.08-2.14V3.52h.82a.63.63,0,1,0,0-1.25Zm-6-1a1.57,1.57,0,0,1,1.45,1H5.18A1.57,1.57,0,0,1,6.62,1.25Zm3.93,11.86a.86.86,0,0,1-.83.89H3.53a.86.86,0,0,1-.83-.89V3.52h7.85Z" />
            <path d="M8.08,11.47a.63.63,0,0,0,.62-.63V6.68a.63.63,0,1,0-1.25,0v4.16A.63.63,0,0,0,8.08,11.47Z" />
            <path d="M5.17,11.47a.63.63,0,0,0,.63-.63V6.68a.63.63,0,1,0-1.25,0v4.16A.63.63,0,0,0,5.17,11.47Z" />
        </symbol>
        <symbol xmlns="http://www.w3.org/2000/svg" id="studio/pencil" fill="none" viewBox="0 0 10 10">
            <path fill="#fff"
                d="M6.804.404a1.38 1.38 0 011.953 0l.839.84c.539.538.539 1.412 0 1.952L8.438 4.353l-2.79-2.791-.533.532 2.79 2.791-4.71 4.71A1.38 1.38 0 012.22 10H.376A.376.376 0 010 9.624V7.78c0-.367.145-.718.404-.977l6.4-6.4z">
            </path>
        </symbol>
        <symbol xmlns="http://www.w3.org/2000/svg" id="studio/draw" fill="none" viewBox="0 0 18 18">
            <path
                d="M16.2844 1.54181C15.7101 0.967543 14.779 0.967543 14.2048 1.54182L9.6461 6.10047C9.37032 6.37625 9.21539 6.75028 9.21539 7.14028V8.78461H10.8597C11.2497 8.78461 11.6238 8.62968 11.8995 8.3539L16.4582 3.79525C17.0325 3.22097 17.0325 2.2899 16.4582 1.71562L16.7451 1.42874L16.4582 1.71562L16.2844 1.54181ZM13.4191 0.756141C14.4273 -0.252046 16.0619 -0.252048 17.07 0.75614L17.2439 0.92995C18.252 1.93814 18.252 3.57273 17.2439 4.58092L12.6852 9.13958C12.2011 9.62373 11.5444 9.89572 10.8597 9.89572H8.65984C8.35301 9.89572 8.10428 9.64699 8.10428 9.34016V7.14028C8.10428 6.45559 8.37627 5.79895 8.86042 5.3148L13.4191 0.756141ZM0 11.3662C0 9.94044 1.15583 8.78461 2.58163 8.78461H5.11421C5.42104 8.78461 5.66977 9.03334 5.66977 9.34016C5.66977 9.64699 5.42104 9.89572 5.11421 9.89572H2.58163C1.76948 9.89572 1.11111 10.5541 1.11111 11.3662C1.11111 12.1784 1.76948 12.8367 2.58163 12.8367H13.2185C14.6443 12.8367 15.8001 13.9926 15.8001 15.4184C15.8001 16.8442 14.6443 18 13.2185 18H8.65984C8.35301 18 8.10428 17.7513 8.10428 17.4444C8.10428 17.1376 8.35301 16.8889 8.65984 16.8889H13.2185C14.0306 16.8889 14.689 16.2305 14.689 15.4184C14.689 14.6062 14.0306 13.9479 13.2185 13.9479H2.58163C1.15583 13.9479 0 12.792 0 11.3662Z"
                fill="currentColor" />
        </symbol>
        <symbol id="studio/plus" fill="currentColor" xmlns="http://www.w3.org/2000/svg" viewBox="0 0 12.25 12.25">
            <path
                d="M11.62,5.5H6.75V.62A.63.63,0,0,0,5.5.62V5.5H.62a.63.63,0,0,0,0,1.25H5.5v4.87a.63.63,0,1,0,1.25,0V6.75h4.87a.63.63,0,1,0,0-1.25Z" />
        </symbol>
        <symbol xmlns="http://www.w3.org/2000/svg" id="studio/trash-filled" fill="currentColor" viewBox="0 0 12 12">
            <path
                d="M11.55,1.8H8.65a2.85,2.85,0,0,0-5.3,0H.45a.45.45,0,0,0,0,.9h.78l.5,7.76A1.65,1.65,0,0,0,3.38,12H8.62a1.65,1.65,0,0,0,1.65-1.54l.5-7.76h.78a.45.45,0,0,0,0-.9ZM6,.9a1.94,1.94,0,0,1,1.64.9H4.36A1.94,1.94,0,0,1,6,.9ZM5.1,8.55a.45.45,0,0,1-.9,0V5.25a.45.45,0,1,1,.9,0Zm2.7,0a.45.45,0,0,1-.9,0V5.25a.45.45,0,0,1,.9,0Z" />
        </symbol>
        <symbol xmlns="http://www.w3.org/2000/svg" id="studio/refresh" fill="currentColor" viewBox="0 0 16.5 16.5">
            <path
                d="M8.25,16.5a8.41,8.41,0,0,1-5.88-2.41l0,1.66a.75.75,0,0,1-1.5,0v-3a1.44,1.44,0,0,1,1.43-1.43h3a.75.75,0,1,1,0,1.5h-2a6.89,6.89,0,0,0,5,2.14A6.76,6.76,0,0,0,15,8.25,7.92,7.92,0,0,0,15,7.4a.75.75,0,0,1,1.49-.18,8.77,8.77,0,0,1,.06,1A8.26,8.26,0,0,1,8.25,16.5ZM.81,9.94a.76.76,0,0,1-.75-.66,8.77,8.77,0,0,1-.06-1A8.26,8.26,0,0,1,8.25,0a8.43,8.43,0,0,1,5.89,2.42l0-1.67a.75.75,0,0,1,1.5,0v3a1.44,1.44,0,0,1-1.43,1.44h-3a.75.75,0,1,1,0-1.5h2a6.93,6.93,0,0,0-5-2.14A6.76,6.76,0,0,0,1.5,8.25a7.58,7.58,0,0,0,.05.84.75.75,0,0,1-.65.84Z" />
        </symbol>
        <symbol id="studio/duplicate" fill="currentColor" viewBox="0 0 20 16" xmlns="http://www.w3.org/2000/svg">
            <path
                d="M17.46,4H16V2.53A2.54,2.54,0,0,0,13.48,0H2.54A2.54,2.54,0,0,0,0,2.53v7A2.54,2.54,0,0,0,2.54,12H4v1.45A2.54,2.54,0,0,0,6.52,16H17.46A2.54,2.54,0,0,0,20,13.47v-7A2.54,2.54,0,0,0,17.46,4ZM4,6.51v4.42H2.54A1.44,1.44,0,0,1,1.09,9.49v-7A1.45,1.45,0,0,1,2.54,1.09H13.48a1.45,1.45,0,0,1,1.45,1.44V4H6.52A2.54,2.54,0,0,0,4,6.51Zm14.93,7a1.45,1.45,0,0,1-1.45,1.44H6.52a1.45,1.45,0,0,1-1.45-1.44v-7A1.44,1.44,0,0,1,6.52,5.07H17.46a1.44,1.44,0,0,1,1.45,1.44Z" />
        </symbol>
        <symbol xmlns="http://www.w3.org/2000/svg" id="studio/chevron-right2" fill="currentColor" viewBox="0 0 14 12">
            <path
                d="M.578 5.447h12.844c.32 0 .578.247.578.553a.566.566 0 01-.578.553H.578A.566.566 0 010 6c0-.306.259-.553.578-.553zM12.58 8.446l-3.543 3.392a.597.597 0 01-.817 0 .537.537 0 010-.783l3.542-3.391a.597.597 0 01.818 0 .537.537 0 010 .782zM9.037.162l3.543 3.392a.537.537 0 010 .782.597.597 0 01-.818 0L8.22.945a.537.537 0 010-.783.596.596 0 01.817 0z">
            </path>
        </symbol>
        <symbol id="studio/share" fill="currentColor" viewBox="0 0 12 10" xmlns="http://www.w3.org/2000/svg">
            <path
                d="M12,5,5.89,0V2.86c-2.09,0-3.59.47-4.55,1.48S0,7,0,9.17l.76.17A3.19,3.19,0,0,1,2.13,7.73a9,9,0,0,1,3.76-.58V10Z" />
        </symbol>
        <symbol id="studio/duplicate2" fill="currentColor" viewBox="0 0 12 12" xmlns="http://www.w3.org/2000/svg">
            <path
                d="M11,2.47H9.6V1.05a1,1,0,0,0-1-1H1.05A1,1,0,0,0,0,1.05v7.5a1,1,0,0,0,1.05,1H2.4V11A1,1,0,0,0,3.45,12H11A1,1,0,0,0,12,11V3.52A1,1,0,0,0,11,2.47Zm-8.55,1V8.7H1.05A.15.15,0,0,1,.9,8.55V1.05A.15.15,0,0,1,1.05.9h7.5a.15.15,0,0,1,.15.15V2.47H3.45A1,1,0,0,0,2.4,3.52ZM9.15,7.68H7.68V9.15a.45.45,0,0,1-.9,0V7.68H5.25a.45.45,0,0,1,0-.9H6.78V5.25a.45.45,0,1,1,.9,0V6.78H9.15a.45.45,0,0,1,0,.9Z" />
        </symbol>
        <symbol xmlns="http://www.w3.org/2000/svg" id="studio/leave" fill="none" viewBox="0 0 20 20">
            <path fill="#121212" fillRule="evenodd"
                d="M2.958 1.408a1.55 1.55 0 00-1.55 1.55v14.084c0 .856.694 1.55 1.55 1.55h6.197a.704.704 0 110 1.408H2.958A2.958 2.958 0 010 17.042V2.958A2.958 2.958 0 012.958 0h6.197a.704.704 0 010 1.408H2.958zm10.77 3.024a.704.704 0 01.995 0l5.07 5.07a.704.704 0 010 .996l-5.07 5.07a.704.704 0 01-.996-.995l3.869-3.869H6.62a.704.704 0 010-1.408h10.976l-3.869-3.868a.704.704 0 010-.996z"
                clipRule="evenodd" opacity="0.4"></path>
        </symbol>
        <symbol id="studio/target" fill="currentColor" viewBox="0 0 14 14" xmlns="http://www.w3.org/2000/svg">
            <path d="M7,8a.54.54,0,0,0-.54.54v2.1a.54.54,0,0,0,1.08,0V8.57A.54.54,0,0,0,7,8Z" />
            <path d="M5.43,6.46H3.33a.54.54,0,0,0,0,1.08h2.1a.54.54,0,0,0,0-1.08Z" />
            <path d="M7,0a7,7,0,1,0,7,7A7,7,0,0,0,7,0ZM7,12.92A5.92,5.92,0,1,1,12.92,7,5.92,5.92,0,0,1,7,12.92Z" />
            <path d="M7,2.79a.54.54,0,0,0-.54.54v2.1a.54.54,0,0,0,1.08,0V3.33A.54.54,0,0,0,7,2.79Z" />
            <path d="M10.67,6.46H8.57a.54.54,0,1,0,0,1.08h2.1a.54.54,0,1,0,0-1.08Z" />
        </symbol>
        <symbol xmlns="http://www.w3.org/2000/svg" id="studio/lock" fill="currentColor" viewBox="0 0 7.5 10">
            <path
                d="M6.26,3.75V2.5a2.5,2.5,0,0,0-5,0V3.75h0A1.25,1.25,0,0,0,0,5V8.75A1.25,1.25,0,0,0,1.25,10h5A1.25,1.25,0,0,0,7.5,8.75V5A1.25,1.25,0,0,0,6.26,3.75Zm-3.75,0V2.5A1.25,1.25,0,0,1,5,2.5V3.75H2.51Z" />
        </symbol>
        <symbol xmlns="http://www.w3.org/2000/svg" id="studio/unlock" fill="currentColor" viewBox="0 0 10 10">
            <path
                d="M7.5 0A2.5 2.5 0 005 2.5v1.25H1.25C.56 3.75 0 4.31 0 5v3.75C0 9.44.56 10 1.25 10h5c.69 0 1.25-.56 1.25-1.25V5c0-.69-.56-1.25-1.25-1.25V2.5a1.25 1.25 0 012.5 0v3.75H10V2.5A2.5 2.5 0 007.5 0z">
            </path>
        </symbol>
        <symbol xmlns="http://www.w3.org/2000/svg" id="studio/layer" fill="currentColor" viewBox="0 0 13 11">
            <path
                d="M6.5,11a1.25,1.25,0,0,1-.5-.11L.65,8.4a1.09,1.09,0,0,1,0-2l1.94-.9L.65,4.6a1.09,1.09,0,0,1,0-2L6,.11a1.17,1.17,0,0,1,1,0L12.35,2.6a1.09,1.09,0,0,1,0,2l-1.94.9,1.94.9a1.09,1.09,0,0,1,0,2L7,10.89A1.25,1.25,0,0,1,6.5,11ZM3.77,6.05,1.07,7.31A.09.09,0,0,0,1,7.4s0,.07.07.1L6.42,10a.18.18,0,0,0,.16,0L11.93,7.5c.05,0,.07-.06.07-.1a.09.09,0,0,0-.07-.09L9.23,6.05,7,7.09a1.2,1.2,0,0,1-1,0Zm.38-.93L6.42,6.18a.22.22,0,0,0,.16,0L8.85,5.12,9.23,5l2.7-1.26A.09.09,0,0,0,12,3.6s0-.07-.07-.1L6.58,1a.22.22,0,0,0-.16,0L1.07,3.5C1,3.53,1,3.56,1,3.6a.09.09,0,0,0,.07.09L3.77,5Z" />
        </symbol>
        <symbol id="studio/bolt" fill="currentColor" viewBox="0 0 16 18" xmlns="http://www.w3.org/2000/svg">
            <path
                d="M14.78,3.68,9.22.34a2.37,2.37,0,0,0-2.44,0L1.22,3.68A2.6,2.6,0,0,0,0,5.9v6.21a2.59,2.59,0,0,0,1.22,2.21l5.56,3.34a2.37,2.37,0,0,0,2.44,0l5.56-3.34A2.6,2.6,0,0,0,16,12.1V5.9A2.6,2.6,0,0,0,14.78,3.68ZM8,12.37A3.3,3.3,0,0,1,4.78,9,3.3,3.3,0,0,1,8,5.63,3.3,3.3,0,0,1,11.22,9,3.3,3.3,0,0,1,8,12.37Z" />
        </symbol>
        <symbol id="studio/relocating" fill="currentColor" viewBox="0 0 20.3 19.29" xmlns="http://www.w3.org/2000/svg">
            <path
                d="M20.3,17.77l0-.13-.78-3a.71.71,0,0,0-.31-.41.62.62,0,0,0-.32-.09.51.51,0,0,0-.17,0,.66.66,0,0,0-.47.74h0l0,.07h0l.37,1.41,0,0-7.81-4.69V2.29l1,1.07a.67.67,0,0,0,.46.2.65.65,0,0,0,.47-.2.7.7,0,0,0,0-.95L10.59.19a.65.65,0,0,0-.92,0L7.49,2.47h0a.7.7,0,0,0,0,.89.63.63,0,0,0,.46.2.61.61,0,0,0,.46-.2l1-1.07v9.42L1.68,16.4l.38-1.47a.68.68,0,0,0-.46-.82l-.17,0a.56.56,0,0,0-.31.09.58.58,0,0,0-.29.34h0l-.77,3H0v.09a.7.7,0,0,0,.06.53.64.64,0,0,0,.36.31v0H.53l2.87.79a.45.45,0,0,0,.16,0A.68.68,0,0,0,3.74,18l-1.41-.39,7.8-4.7,7.92,4.77-1.46.41a.6.6,0,0,0,.14,1.17h.08l0,.08,3-.83a.62.62,0,0,0,.39-.32h0l0-.07,0-.05h0ZM.56,18.31Z" />
        </symbol>
        <symbol id="studio/rotation" fill="currentColor" viewBox="0 0 19.4 19.4" xmlns="http://www.w3.org/2000/svg">
            <path
                d="M18.27,7.5a8.53,8.53,0,0,0-3.08-1.58q-.66-.21-1.35-.36a12.28,12.28,0,0,0-.36-1.35A8.53,8.53,0,0,0,11.9,1.13,3,3,0,0,0,9.7,0,3,3,0,0,0,7.5,1.13,8.53,8.53,0,0,0,5.92,4.21,12.62,12.62,0,0,0,5.49,6a14.48,14.48,0,0,0-.23,1.73,20,20,0,0,0-.09,2,20,20,0,0,0,.09,2v0c0,.27.06.54.1.81-.29-.07-.56-.16-.77-.22a7.85,7.85,0,0,1-2.53-1.22A1.93,1.93,0,0,1,1.2,9.7a1.93,1.93,0,0,1,.86-1.42,7.76,7.76,0,0,1,2.5-1.22A.57.57,0,0,0,5,6.49.59.59,0,0,0,4.76,6a.57.57,0,0,0-.36-.13.51.51,0,0,0-.17,0A8.55,8.55,0,0,0,1.13,7.5,3,3,0,0,0,0,9.7a3,3,0,0,0,1.13,2.2,8.53,8.53,0,0,0,3.08,1.58q.66.21,1.35.36a12.91,12.91,0,0,0,.36,1.35A8.53,8.53,0,0,0,7.5,18.27,3,3,0,0,0,9.7,19.4a3,3,0,0,0,2.2-1.13,8.5,8.5,0,0,0,1.58-3.09h0a.58.58,0,0,0-.39-.72l-.18,0a.48.48,0,0,0-.26.07.58.58,0,0,0-.29.34,7.72,7.72,0,0,1-1.24,2.51,1.93,1.93,0,0,1-1.42.86,1.94,1.94,0,0,1-1.42-.86A7.72,7.72,0,0,1,7,14.83c-.07-.22-.13-.46-.2-.77l.81.1h0a18.44,18.44,0,0,0,2,.11,19.71,19.71,0,0,0,3-.21h.11v0a11.2,11.2,0,0,0,1.27-.24,10.59,10.59,0,0,0,3.89-1.64A3.12,3.12,0,0,0,19.4,9.7,3,3,0,0,0,18.27,7.5ZM6.65,6.19A13.65,13.65,0,0,1,7,4.59,7.84,7.84,0,0,1,8.28,2.06,1.93,1.93,0,0,1,9.7,1.2a1.93,1.93,0,0,1,1.42.86,7.72,7.72,0,0,1,1.24,2.51c.08.26.15.53.2.77l-.83-.1a19.11,19.11,0,0,0-2-.1,18.92,18.92,0,0,0-2,.1.59.59,0,0,0-.54.64.61.61,0,0,0,.59.54h0a16.89,16.89,0,0,1,1.9-.1,16.89,16.89,0,0,1,1.9.1h0c.4,0,.79.09,1.19.16A11.59,11.59,0,0,1,13,7.8a17.94,17.94,0,0,1,.09,1.9A17.94,17.94,0,0,1,13,11.6a.64.64,0,0,0,.13.42.6.6,0,0,0,.41.22h.06a.59.59,0,0,0,.58-.54,20.12,20.12,0,0,0,.09-2,20,20,0,0,0-.09-2v0h0c0-.25-.06-.54-.1-.82l.77.21a7.71,7.71,0,0,1,2.51,1.26A1.94,1.94,0,0,1,18.2,9.7a2.16,2.16,0,0,1-1.15,1.63,9.45,9.45,0,0,1-3.25,1.3c-.48.1-.9.17-1.28.23a21,21,0,0,1-2.84.21A17.42,17.42,0,0,1,7.78,13a10.27,10.27,0,0,1-1.2-.16c0-.13,0-.28-.07-.42A23.2,23.2,0,0,1,6.65,6.19Z" />
        </symbol>
        <symbol xmlns="http://www.w3.org/2000/svg" id="studio/replace" fill="currentColor" viewBox="0 0 19 19">
            <path
                d="M11.23.78a.58.58,0,0,0-.37.13.6.6,0,0,0-.21.34v.23l.09.21.16.17.21.09a7.67,7.67,0,0,1,3.56,1.82,7.76,7.76,0,0,1,2.17,3.36h-2a.63.63,0,0,0-.42.17.6.6,0,0,0,0,.84.63.63,0,0,0,.42.17h3.57l.22,0,.2-.13L19,8,19,7.72V4.16a.59.59,0,0,0-.17-.42.64.64,0,0,0-.42-.18.62.62,0,0,0-.6.6V6.35A8.88,8.88,0,0,0,11.36.79h-.13" />
            <path
                d="M13.06,17.81a1.18,1.18,0,0,1-1.18-1.18V13.06a1.16,1.16,0,0,1,1.18-1.18h3.57a1.18,1.18,0,0,1,1.18,1.18v3.57a1.2,1.2,0,0,1-1.18,1.18H13.06m3.57-7.12H13.06a2.36,2.36,0,0,0-2.37,2.37v3.57A2.37,2.37,0,0,0,13.06,19h3.57A2.39,2.39,0,0,0,19,16.63V13.06a2.37,2.37,0,0,0-2.37-2.37" />
            <path
                d="M2.38,7.13a1.23,1.23,0,0,1-.84-.35,1.18,1.18,0,0,1-.35-.84V2.38a1.15,1.15,0,0,1,.35-.84,1.15,1.15,0,0,1,.84-.35H5.94A1.18,1.18,0,0,1,7.12,2.38V5.94a1.21,1.21,0,0,1-.34.84,1.27,1.27,0,0,1-.84.35H2.38M5.94,0H2.38A2.39,2.39,0,0,0,0,2.38V5.94A2.37,2.37,0,0,0,2.38,8.31H5.94A2.36,2.36,0,0,0,8.31,5.94V2.38A2.37,2.37,0,0,0,5.94,0" />
            <path
                d="M4.16,10.69H.59l-.22,0-.2.13-.12.19,0,.23v3.56a.59.59,0,0,0,.17.42.64.64,0,0,0,.42.18A.6.6,0,0,0,1,15.26a.6.6,0,0,0,.18-.42V12.65a8.88,8.88,0,0,0,6.45,5.56h.13a.58.58,0,0,0,.37-.13.6.6,0,0,0,.21-.34v-.23l-.09-.21-.16-.17-.21-.09a7.67,7.67,0,0,1-3.56-1.82,7.85,7.85,0,0,1-2.17-3.35h2a.64.64,0,0,0,.42-.18.6.6,0,0,0,0-.84.63.63,0,0,0-.42-.17" />
        </symbol>
        <symbol id="studio/tezos" fill="currentColor" viewBox="0 0 128 128" xmlns="http://www.w3.org/2000/svg">
            <path
                d="M72,59.75,97.65,34.14V30.63H50.05V10.76L32.7,14.18v2.67s5.35-.09,5.35,5.1v8.68H24v6.3h14V72.18c0,3.61,3.46,13.77,16,13.77,8.51,0,10.09-4.32,10.09-4.32V77.76a9.94,9.94,0,0,1-6.22,2.57c-3.87,0-7.89-2.93-7.89-9.23V36.93H83.78L59.61,61.24v5.94S86.38,71.11,87.86,91c.78,10.36-5.46,20.51-20.64,20.51-6.89,0-13.64-3.5-13.06-5a6.68,6.68,0,0,0,4-6.3,7,7,0,0,0-6.93-6.8c-6.13,0-8.24,4.77-8.24,7,0,10,8.61,16.84,26.26,16.84,25.09,0,31.27-16.93,31.27-26.92C100.53,69,72,59.75,72,59.75Z" />
        </symbol>
        <symbol id="studio/phantom" viewBox="0 0 24 20" fill="none" xmlns="http://www.w3.org/2000/svg">
            <path
                d="M2.83991 20C5.90255 20 8.20417 17.3346 9.57768 15.2283C9.41065 15.6943 9.31786 16.1603 9.31786 16.6077C9.31786 17.8379 10.0232 18.7139 11.4153 18.7139C13.3271 18.7139 15.3689 17.0363 16.4269 15.2283C16.3527 15.4893 16.3156 15.7316 16.3156 15.9553C16.3156 16.8127 16.7982 17.3532 17.7818 17.3532C20.8816 17.3532 24 11.8546 24 7.04567C24 3.29916 22.1067 0 17.355 0C9.00227 0 0 10.2144 0 16.8127C0 19.4036 1.39211 20 2.83991 20ZM14.4779 6.6356C14.4779 5.70363 14.9976 5.05126 15.7587 5.05126C16.5011 5.05126 17.0209 5.70363 17.0209 6.6356C17.0209 7.56757 16.5011 8.23858 15.7587 8.23858C14.9976 8.23858 14.4779 7.56757 14.4779 6.6356ZM18.4501 6.6356C18.4501 5.70363 18.9699 5.05126 19.7308 5.05126C20.4733 5.05126 20.993 5.70363 20.993 6.6356C20.993 7.56757 20.4733 8.23858 19.7308 8.23858C18.9699 8.23858 18.4501 7.56757 18.4501 6.6356Z"
                fill="#121212" />
        </symbol>
        <symbol id="studio/info-circle" viewBox="0 0 18 18" fill="none" xmlns="http://www.w3.org/2000/svg">
            <rect width="18" height="18" rx="6" fill="#202020" />
            <g opacity="0.4">
                <path fill-rule="evenodd" clip-rule="evenodd"
                    d="M8.25 5.5C7.83579 5.5 7.5 5.83579 7.5 6.25C7.5 6.66421 7.16421 7 6.75 7C6.33579 7 6 6.66421 6 6.25C6 5.00736 7.00736 4 8.25 4H9.45868C10.8622 4 12 5.13779 12 6.54132C12 7.39101 11.5753 8.18449 10.8684 8.65582L10.3066 9.0303C9.95888 9.26214 9.75 9.65243 9.75 10.0704V10.25C9.75 10.6642 9.41421 11 9 11C8.58579 11 8.25 10.6642 8.25 10.25V10.0704C8.25 9.1509 8.70953 8.29226 9.47458 7.78223L10.0363 7.40774C10.326 7.21462 10.5 6.88948 10.5 6.54132C10.5 5.96621 10.0338 5.5 9.45868 5.5H8.25Z"
                    fill="white" />
                <path
                    d="M8 13C8 12.4477 8.44772 12 9 12C9.55228 12 10 12.4477 10 13C10 13.5523 9.55228 14 9 14C8.44772 14 8 13.5523 8 13Z"
                    fill="white" />
            </g>
        </symbol>

        <symbol id="studio/add-behavior" xmlns="http://www.w3.org/2000/svg" viewBox="0 0 13 13" fill="none">
            <path fill-rule="evenodd" clip-rule="evenodd"
                d="M4.41785 4.41305L3.56058 7.17683C3.41533 7.64511 2.97999 7.98285 2.46651 7.98285H0.62069C0.277892 7.98285 0 7.70925 0 7.37174C0 7.03424 0.277892 6.76063 0.62069 6.76063H2.3917L3.7052 2.52597C3.92374 1.82141 4.93122 1.82624 5.14425 2.53112L7.56689 10.5471L8.44055 7.58224C8.58074 7.10649 9.01951 6.76063 9.53934 6.76063H11.3793C11.7221 6.76063 12 7.03424 12 7.37174C12 7.70925 11.7221 7.98285 11.3793 7.98285H9.61507L8.29462 12.464C8.08495 13.1755 7.0675 13.1802 6.85253 12.4689L4.41785 4.41305ZM9.63272 7.92296C9.63271 7.92302 9.63274 7.9229 9.63272 7.92296Z"
                fill="currentColor" />
            <path fill-rule="evenodd" clip-rule="evenodd"
                d="M10.5 0C10.8186 0 11.0769 0.258298 11.0769 0.576923V1.92308H12.4231C12.7417 1.92308 13 2.18137 13 2.5C13 2.81863 12.7417 3.07692 12.4231 3.07692H11.0769V4.42308C11.0769 4.7417 10.8186 5 10.5 5C10.1814 5 9.92308 4.7417 9.92308 4.42308V3.07692H8.57692C8.2583 3.07692 8 2.81863 8 2.5C8 2.18137 8.2583 1.92308 8.57692 1.92308H9.92272L9.92308 0.576923C9.92308 0.258298 10.1814 0 10.5 0Z"
                fill="currentColor" />
        </symbol>

        <symbol id="studio/add-plus" viewBox="0 0 10 10" fill="none" xmlns="http://www.w3.org/2000/svg">
            <path fill-rule="evenodd" clip-rule="evenodd"
                d="M5 0C5.33676 0 5.60976 0.272997 5.60976 0.609756V4.39024H9.39024C9.727 4.39024 10 4.66324 10 5C10 5.33676 9.727 5.60976 9.39024 5.60976H5.60976V9.39024C5.60976 9.727 5.33676 10 5 10C4.66324 10 4.39024 9.727 4.39024 9.39024V5.60976H0.609756C0.272997 5.60976 0 5.33676 0 5C0 4.66324 0.272997 4.39024 0.609756 4.39024H4.39024V0.609756C4.39024 0.272997 4.66324 0 5 0Z"
                fill="currentColor" />
        </symbol>

        <symbol id="studio/info" viewBox="0 0 16 16" fill="currentColor" xmlns="http://www.w3.org/2000/svg">
            <path d="M8,0a8,8,0,1,0,8,8A8,8,0,0,0,8,0Zm.6,12H7.4V7.8h-1V6.6H8.6Zm0-6.6H7.4V4.2H8.6Z" />
        </symbol>

        <symbol id="studio/i" viewBox="0 0 4 14" xmlns="http://www.w3.org/2000/svg" fill="currentColor">
            <path
                d="M2.86,4.55H1A.91.91,0,1,0,1,6.36h1v6.73a.94.94,0,0,0,1,.91.94.94,0,0,0,1-.91V5.45A.93.93,0,0,0,2.86,4.55Z" />
            <path
                d="M2.86,2.18A1.12,1.12,0,0,0,4,1.09,1.12,1.12,0,0,0,2.86,0,1.13,1.13,0,0,0,1.71,1.09,1.13,1.13,0,0,0,2.86,2.18Z" />
        </symbol>

        <symbol id="studio/relation" viewBox="0 0 20 26" xmlns="http://www.w3.org/2000/svg" fill="none">
            <path
                d="M8.33805 14.4954C8.90466 14.9347 9.55912 15.2471 10.2571 15.4112C10.955 15.5754 11.6801 15.5875 12.3831 15.4468C13.0861 15.3061 13.7507 15.0158 14.3317 14.5957C14.9126 14.1756 15.3965 13.6354 15.7504 13.0119L17.845 9.32238C18.4724 8.1712 18.6226 6.81967 18.2631 5.55887C17.9037 4.29807 17.0634 3.22889 15.9233 2.5816C14.7832 1.93432 13.4345 1.76071 12.1676 2.09819C10.9008 2.43567 9.81717 3.25721 9.15017 4.38589L7.94656 6.49156M11.6626 11.5042C11.096 11.0648 10.4415 10.7525 9.74356 10.5883C9.04563 10.4242 8.32056 10.4121 7.61753 10.5528C6.9145 10.6935 6.24995 10.9837 5.66896 11.4039C5.08797 11.824 4.60413 12.3641 4.25026 12.9877L2.15557 16.6772C1.52819 17.8284 1.37806 19.1799 1.73749 20.4407C2.09693 21.7015 2.93719 22.7707 4.07729 23.418C5.21739 24.0652 6.56611 24.2388 7.83296 23.9014C9.09982 23.5639 10.1834 22.7423 10.8504 21.6137L12.0444 19.5107"
                stroke="currentColor" stroke-width="3" stroke-linecap="round" stroke-linejoin="round" />
        </symbol>

        <symbol id="studio/relation-thin" xmlns="http://www.w3.org/2000/svg" viewBox="0 0 18 18" fill="none">
            <g clip-path="url(#clip0_20073_1269)">
                <path
                    d="M7.82706 9.70523C8.16559 9.96719 8.55651 10.1533 8.97329 10.2509C9.39007 10.3485 9.82296 10.3553 10.2426 10.2709C10.6623 10.1865 11.0588 10.0128 11.4055 9.76165C11.7521 9.51049 12.0407 9.18772 12.2516 8.81523L13.5 6.61129C13.8739 5.92365 13.9628 5.11665 13.7475 4.36413C13.5321 3.6116 13.0299 2.97376 12.3488 2.58796C11.6678 2.20217 10.8624 2.09931 10.1063 2.30152C9.35013 2.50373 8.70365 2.99485 8.30608 3.66909L7.58871 4.92692"
                    stroke="currentColor" stroke-width="1.2" stroke-linecap="round" stroke-linejoin="round" />
                <path
                    d="M9.80881 7.92365C9.47027 7.66169 9.07936 7.47559 8.66258 7.37799C8.2458 7.28039 7.81291 7.27356 7.39326 7.35798C6.97361 7.44239 6.57702 7.61607 6.2304 7.86723C5.88377 8.11839 5.59522 8.44116 5.38431 8.81365L4.13584 11.0176C3.76195 11.7052 3.67309 12.5122 3.88841 13.2647C4.10374 14.0173 4.60601 14.6551 5.28706 15.0409C5.9681 15.4267 6.77343 15.5296 7.52958 15.3274C8.28574 15.1251 8.93222 14.634 9.32979 13.9598L10.0414 12.7035"
                    stroke="currentColor" stroke-width="1.2" stroke-linecap="round" stroke-linejoin="round" />
            </g>
            <defs>
                <clipPath id="clip0_20073_1269">
                    <rect width="14.3287" height="14.3287" fill="white"
                        transform="translate(0 3.82031) rotate(-15.4698)" />
                </clipPath>
            </defs>
        </symbol>

        <symbol id="studio/receiver" viewBox="0 0 712 623" xmlns="http://www.w3.org/2000/svg" fill="none">
            <path
                d="M582.17 467.698C592.885 480.085 611.634 480.085 624.357 466.024C679.934 405.755 711.409 325.398 711.409 238.68C711.409 151.961 679.934 71.604 624.357 11.3369C611.634 -2.72598 592.885 -2.72598 582.17 9.66116C571.456 21.7154 574.469 37.4526 586.857 51.1797C631.722 101.068 656.833 166.693 656.833 238.68C656.833 310.667 631.722 376.291 586.857 426.18C574.469 439.908 571.456 455.644 582.17 467.698ZM129.827 467.698C140.542 455.644 137.193 439.908 125.139 426.18C80.2731 376.291 55.1617 310.667 55.1617 238.68C55.1617 166.693 80.2731 101.068 125.139 51.1797C137.193 37.4526 140.542 21.7154 129.827 9.66116C119.113 -2.72598 100.362 -2.72598 87.3045 11.3369C31.7231 71.604 0.585938 151.961 0.585938 238.68C0.585938 325.398 31.7231 405.755 87.3045 466.024C100.362 480.085 119.113 480.085 129.827 467.698ZM230.273 372.274C240.987 360.22 236.3 345.153 225.92 330.755C205.832 305.978 195.786 273.501 195.786 238.68C195.786 203.858 206.5 172.385 225.92 146.604C236.3 131.873 240.987 117.14 230.273 105.085C219.225 92.3626 199.135 92.0283 187.416 107.43C158.286 143.591 141.21 189.461 141.21 238.68C141.21 287.898 158.286 333.77 187.416 369.93C199.135 385.331 219.225 384.997 230.273 372.274ZM481.389 372.274C492.773 384.997 512.527 385.331 524.58 369.93C553.71 333.77 570.452 287.898 570.452 238.68C570.452 189.461 553.71 143.591 524.58 107.43C512.527 92.0283 492.773 92.3626 481.389 105.085C470.675 117.14 475.362 131.873 485.742 146.604C505.162 172.385 515.876 203.858 515.876 238.68C515.876 273.501 505.832 305.978 485.742 330.755C475.362 345.153 470.675 360.22 481.389 372.274ZM355.832 622.72C371.903 622.72 381.612 611.335 381.612 593.925V293.255C402.037 283.545 416.099 262.787 416.099 238.68C416.099 205.198 389.647 178.077 355.832 178.077C322.349 178.077 295.897 205.198 295.897 238.68C295.897 262.787 309.626 283.545 330.384 293.255V593.925C330.384 611.001 340.764 622.72 355.832 622.72Z"
                fill="currentColor" />
        </symbol>

        <symbol id="studio/emitter" viewBox="0 0 24 24" xmlns="http://www.w3.org/2000/svg" fill="none">
            <path d="M4 11C6.38695 11 8.67613 11.9482 10.364 13.636C12.0518 15.3239 13 17.6131 13 20"
                stroke="currentColor" stroke-width="2" stroke-linecap="round" stroke-linejoin="round" />
            <path d="M4 4C8.24346 4 12.3131 5.68571 15.3137 8.68629C18.3143 11.6869 20 15.7565 20 20"
                stroke="currentColor" stroke-width="2" stroke-linecap="round" stroke-linejoin="round" />
            <path
                d="M5 20C5.55228 20 6 19.5523 6 19C6 18.4477 5.55228 18 5 18C4.44772 18 4 18.4477 4 19C4 19.5523 4.44772 20 5 20Z"
                stroke="currentColor" stroke-width="2" stroke-linecap="round" stroke-linejoin="round" />
        </symbol>

        <symbol id="studio/file" viewBox="0 0 54 90" xmlns="http://www.w3.org/2000/svg" fill="none">
            <path fill-rule="evenodd" clip-rule="evenodd"
                d="M8.39925 1.02481C9.16696 1.07573 11.0607 1.35581 12.6217 1.61043C14.1827 1.89051 17.7142 2.5016 25.5449 3.82562V15.92C25.5449 23.0494 25.6728 28.4727 25.8008 29.1602C25.9543 29.7968 26.3126 30.8916 26.6197 31.5791C26.9012 32.292 27.5921 33.5397 28.1039 34.3799C28.6413 35.2202 29.5114 36.315 30.0744 36.7988C30.6118 37.308 31.6098 38.0464 32.3264 38.4538C33.0173 38.8612 34.8086 39.5232 36.2929 39.9052C37.7771 40.2871 39.9011 40.8472 41.0271 41.1528C42.1531 41.4329 43.2535 41.7129 43.4582 41.7639C43.6629 41.8148 45.8637 42.375 48.3204 43.037C50.7771 43.699 52.8755 44.3101 52.9779 44.4119C53.0546 44.4883 52.9267 50.3445 52.6708 57.4229C52.4149 64.5014 52.1334 72.9293 52.031 76.1375C51.9287 79.3457 51.6983 82.7321 51.5192 83.6487C51.3401 84.5653 50.905 85.7875 50.5212 86.3731C50.1629 86.9842 49.3696 87.8245 48.7554 88.2573C48.1669 88.6902 47.1688 89.3013 46.5291 89.5559C45.6334 89.9633 44.9936 90.0651 43.5862 89.9633C41.974 89.8614 40.285 89.2503 25.6728 83.4196C16.7929 79.8804 9.03901 76.7231 8.39925 76.3921C7.75949 76.0865 6.55673 75.0935 5.71225 74.1769C4.86776 73.2603 3.74178 71.6816 3.20438 70.6377C2.6158 69.4664 2.10399 67.9642 1.87368 66.7165C1.61777 65.2652 1.28509 57.2447 0.696513 38.4538C0.261475 24.0169 -0.0456103 11.1332 0.00557065 9.80917C0.107933 8.10322 0.312657 6.93197 0.722105 5.86257C1.05478 5.02233 1.69454 3.95293 2.10399 3.46915C2.53903 3.01084 3.17879 2.39975 3.53706 2.14513C3.89532 1.91598 4.81658 1.50859 5.5843 1.30489C6.42878 1.05027 7.55476 0.948423 8.39925 1.02481ZM30.4071 6.52458C30.4838 6.52458 32.0193 8.63792 33.8106 11.2605C35.6275 13.9085 38.6216 18.288 40.4897 21.0124C42.3578 23.7368 45.6334 28.5491 47.7574 31.7064C50.47 35.7294 51.5448 37.4863 51.3145 37.6136C51.1609 37.7154 50.7515 37.8173 50.4188 37.8173C50.1117 37.8173 46.094 36.8752 41.4622 35.7549C36.8559 34.6091 32.8126 33.5397 32.4543 33.3614C32.096 33.1832 31.4563 32.6485 31.0212 32.1647C30.5862 31.7064 30.0232 30.9171 29.7673 30.4333C29.3579 29.6695 29.2811 28.7274 29.1787 23.304C29.1275 19.8666 29.1275 14.7488 29.2043 11.9225C29.3323 7.21205 29.3834 6.7792 29.8185 6.67735C30.0744 6.60097 30.3303 6.55005 30.4071 6.52458Z"
                fill="currentColor" />
        </symbol>

        <symbol id="studio/component" xmlns="http://www.w3.org/2000/svg" viewBox="0 0 14 14" fill="none">
            <path
                d="M0.907407 1.81481C0.40626 1.81481 0 1.40855 0 0.907407C0 0.40626 0.40626 0 0.907407 0C1.40855 0 1.81481 0.40626 1.81481 0.907407C1.81481 1.40855 1.40855 1.81481 0.907407 1.81481Z"
                fill="currentColor" />
            <path
                d="M13.0926 1.81481C12.5914 1.81481 12.1852 1.40855 12.1852 0.907407C12.1852 0.40626 12.5914 0 13.0926 0C13.5937 0 14 0.40626 14 0.907407C14 1.40855 13.5937 1.81481 13.0926 1.81481Z"
                fill="currentColor" />
            <path
                d="M13.0926 14C12.5914 14 12.1852 13.5937 12.1852 13.0926C12.1852 12.5914 12.5914 12.1852 13.0926 12.1852C13.5937 12.1852 14 12.5914 14 13.0926C14 13.5937 13.5937 14 13.0926 14Z"
                fill="currentColor" />
            <path
                d="M0.907407 14C0.40626 14 0 13.5937 0 13.0926C0 12.5914 0.40626 12.1852 0.907407 12.1852C1.40855 12.1852 1.81481 12.5914 1.81481 13.0926C1.81481 13.5937 1.40855 14 0.907407 14Z"
                fill="currentColor" />
            <path
                d="M8.23805 1.47915C7.47089 1.04077 6.52911 1.04077 5.76195 1.47915L2.81288 3.16434C2.62934 3.26921 2.46239 3.39541 2.31442 3.5388L6.99982 6.21617L11.6854 3.53867C11.5375 3.39534 11.3706 3.26918 11.1871 3.16434L8.23805 1.47915Z"
                fill="currentColor" />
            <path
                d="M1.55556 5.33092C1.55556 5.12105 1.58191 4.91495 1.63228 4.71666L6.31927 7.39494V12.755C6.12701 12.7005 5.93979 12.6224 5.76195 12.5208L2.81288 10.8356C2.03538 10.3913 1.55556 9.56449 1.55556 8.66901V5.33092Z"
                fill="currentColor" />
            <path
                d="M8.23805 12.5208C8.0601 12.6225 7.87276 12.7006 7.68038 12.7551V7.39494L12.3677 4.71649C12.4181 4.91483 12.4444 5.12099 12.4444 5.33092V8.66901C12.4444 9.56449 11.9646 10.3913 11.1871 10.8356L8.23805 12.5208Z"
                fill="currentColor" />
        </symbol>

        <symbol id="studio/close-sidebar" xmlns="http://www.w3.org/2000/svg" viewBox="0 0 16 16" fill="currentColor">
            <path d="M15.34,0a.65.65,0,0,0-.65.66V15.34a.66.66,0,1,0,1.31,0V.66A.65.65,0,0,0,15.34,0Z" />
            <path
                d="M.14,7.68a.66.66,0,0,0,0,.83l3.39,4.11a.65.65,0,0,0,.92.08.66.66,0,0,0,.08-.93l-2.48-3h8.55a.66.66,0,1,0,0-1.31H2L4.57,4.2a.66.66,0,0,0-.12-.92.66.66,0,0,0-.92.12Z" />
        </symbol>

        <symbol id="studio/upload" xmlns="http://www.w3.org/2000/svg" viewBox="0 0 14 14" fill="currentColor">
            <path
                d="M.78,6.81a.77.77,0,0,1,.78.77v3.31a1.54,1.54,0,0,0,1.55,1.55h7.78a1.54,1.54,0,0,0,1.55-1.55V7.58a.78.78,0,0,1,1.56,0v3.31A3.11,3.11,0,0,1,10.89,14H3.11A3.11,3.11,0,0,1,0,10.89V7.58A.77.77,0,0,1,.78,6.81Z" />
            <path class="cls-1"
                d="M7,0a.76.76,0,0,1,.55.23l3.5,3.5A.78.78,0,1,1,10,4.83L7.78,2.66V9.53a.78.78,0,1,1-1.56,0V2.66L4.05,4.83A.78.78,0,1,1,3,3.73L6.45.23A.76.76,0,0,1,7,0Z" />
        </symbol>

        <symbol id="studio/circle-plus" xmlns="http://www.w3.org/2000/svg" width="18" height="18" viewBox="0 0 24 24"
            fill="none" stroke="currentColor" stroke-width="2" stroke-linecap="round" stroke-linejoin="round"
            class="lucide lucide-circle-plus">
            <circle cx="12" cy="12" r="10" />
            <path d="M8 12h8" />
            <path d="M12 8v8" />
        </symbol>

        <symbol id="studio/link" xmlns="http://www.w3.org/2000/svg" width="18" height="18" viewBox="0 0 24 24"
            fill="none" stroke="currentColor" stroke-width="2" stroke-linecap="round" stroke-linejoin="round"
            class="lucide lucide-link">
            <path d="M10 13a5 5 0 0 0 7.54.54l3-3a5 5 0 0 0-7.07-7.07l-1.72 1.71" />
            <path d="M14 11a5 5 0 0 0-7.54-.54l-3 3a5 5 0 0 0 7.07 7.07l1.71-1.71" />
        </symbol>

        <symbol id="studio/components" xmlns="http://www.w3.org/2000/svg" viewBox="0 0 12 9" fill="currentColor">
            <path
                d="M3.57,8.66a1.14,1.14,0,0,0,1.62,0L8.43,5.33a1.21,1.21,0,0,0,0-1.66L5.19.34a1.14,1.14,0,0,0-1.62,0L.34,3.67a1.19,1.19,0,0,0,0,1.66Z" />
            <path
                d="M8.43,8.66a1.14,1.14,0,0,1-1.62,0l-.24-.25L9.4,5.5a1.44,1.44,0,0,0,0-2L6.57.59,6.81.34a1.14,1.14,0,0,1,1.62,0l3.23,3.33a1.19,1.19,0,0,1,0,1.66Z" />
        </symbol>

        <symbol id="studio/behavior" xmlns="http://www.w3.org/2000/svg" viewBox="0 0 12 11" fill="currentColor">
            <path
                d="M4.42,2.41,3.56,5.18A1.13,1.13,0,0,1,2.47,6H.62a.61.61,0,1,1,0-1.22H2.39L3.71.53a.75.75,0,0,1,1.43,0l2.43,8,.87-3a1.15,1.15,0,0,1,1.1-.82h1.84a.61.61,0,1,1,0,1.22H9.62L8.29,10.46a.75.75,0,0,1-1.44,0ZM9.63,5.92h0l-.09,0,.09,0Z" />
        </symbol>

        <symbol id="studio/add-group" viewBox="0 0 17 14" fill="currentColor" xmlns="http://www.w3.org/2000/svg">
            <path
                d="M7.73,1.15a.23.23,0,0,1,.2,0l6.48,3.13a.19.19,0,0,1,0,.36L7.93,7.78a.23.23,0,0,1-.2,0L1.25,4.64a.2.2,0,0,1,0-.36Zm.7-1a1.31,1.31,0,0,0-1.19,0L.76,3.27a1.31,1.31,0,0,0,0,2.38l2.48,1.2L.76,8.05a1.32,1.32,0,0,0,0,2.39l6.48,3.13a1.38,1.38,0,0,0,1.19,0l2.15-1-.85-.84-1.8.87a.23.23,0,0,1-.2,0L2,9.8H2l-.76-.36a.21.21,0,0,1,0-.37L4.53,7.48l2.71,1.3a1.31,1.31,0,0,0,1.08.05v0l4.11-2h0l2.48-1.2a1.31,1.31,0,0,0,0-2.38Z" />
            <path
                d="M13.88,7.83a.71.71,0,0,1,.72.71V10.2h1.68a.72.72,0,1,1,0,1.43H14.6v1.66a.72.72,0,0,1-1.43,0V11.63H11.49a.72.72,0,1,1,0-1.43h1.68V8.54A.71.71,0,0,1,13.88,7.83Z" />
        </symbol>

        <symbol id="studio/horizontal-menu" xmlns="http://www.w3.org/2000/svg" width="10" height="2" viewBox="0 0 10 2"
            fill="none">
            <path
                d="M1.05 0C0.470101 0 0 0.447715 0 1C0 1.55228 0.470101 2 1.05 2C1.6299 2 2.1 1.55228 2.1 1C2.1 0.447715 1.6299 0 1.05 0Z"
                fill="white" />
            <path
                d="M5 4.37114e-08C4.4201 4.37114e-08 3.95 0.447715 3.95 1C3.95 1.55228 4.4201 2 5 2C5.5799 2 6.05 1.55228 6.05 1C6.05 0.447715 5.5799 4.37114e-08 5 4.37114e-08Z"
                fill="white" />
            <path
                d="M8.95 8.74228e-08C8.3701 8.74228e-08 7.9 0.447715 7.9 1C7.9 1.55228 8.3701 2 8.95 2C9.5299 2 10 1.55228 10 1C10 0.447715 9.5299 8.74228e-08 8.95 8.74228e-08Z"
                fill="white" />
        </symbol>

        <symbol id="studio/detach-tab" xmlns="http://www.w3.org/2000/svg" viewBox="0 0 15 14" fill="currentColor">
            <path
                d="M15 4.69388C15 4.34011 14.9289 3.98981 14.7907 3.66298C14.6525 3.33614 14.4499 3.03917 14.1945 2.78902C13.9392 2.53887 13.636 2.34044 13.3024 2.20506C12.9687 2.06968 12.6111 2 12.25 2H11C10.8011 2 10.6103 2.0774 10.4697 2.21519C10.329 2.35297 10.25 2.53984 10.25 2.73469C10.25 2.92955 10.329 3.11642 10.4697 3.2542C10.6103 3.39198 10.8011 3.46939 11 3.46939H12.25C12.5815 3.46939 12.8995 3.5984 13.1339 3.82803C13.3683 4.05767 13.5 4.36912 13.5 4.69388V11.3061C13.5 11.6309 13.3683 11.9423 13.1339 12.172C12.8995 12.4016 12.5815 12.5306 12.25 12.5306H3.75C3.41848 12.5306 3.10054 12.4016 2.86612 12.172C2.6317 11.9423 2.5 11.6309 2.5 11.3061V9.83673C2.5 9.64188 2.42098 9.45501 2.28033 9.31723C2.13968 9.17945 1.94891 9.10204 1.75 9.10204C1.55109 9.10204 1.36032 9.17945 1.21967 9.31723C1.07902 9.45501 1 9.64188 1 9.83673V11.3061C1 12.0206 1.28973 12.7058 1.80546 13.211C2.06082 13.4611 2.36398 13.6596 2.69762 13.7949C3.03127 13.9303 3.38886 14 3.75 14H12.25C12.6111 14 12.9687 13.9303 13.3024 13.7949C13.636 13.6596 13.9392 13.4611 14.1945 13.211C14.4499 12.9608 14.6525 12.6639 14.7907 12.337C14.9289 12.0102 15 11.6599 15 11.3061V4.69388Z"
                fill="white" />
            <path
                d="M8 2.33333C8 1.71449 7.76295 1.121 7.34099 0.683418C6.91903 0.245833 6.34674 0 5.75 0H2.25C1.65326 0 1.08097 0.245833 0.65901 0.683418C0.237053 1.121 0 1.71449 0 2.33333V4.66667C0 5.28551 0.237053 5.879 0.65901 6.31658C1.08097 6.75417 1.65326 7 2.25 7H5.75C6.34674 7 6.91903 6.75417 7.34099 6.31658C7.76295 5.879 8 5.28551 8 4.66667V2.33333Z"
                fill="white" />
        </symbol>

        <symbol id="studio/attach-tab" xmlns="http://www.w3.org/2000/svg" viewBox="0 0 14 12" fill="currentColor">
            <path
                d="M-7.39974e-07 9.55555C-8.57898e-07 10.9044 1.11322 12 2.48387 12L11.5161 12C12.8868 12 14 10.9044 14 9.55556L14 2.44444C14 1.09556 12.8868 8.56353e-07 11.5161 7.36527e-07L2.48387 -5.30977e-08C1.11323 -1.72923e-07 -3.77568e-10 1.09556 -1.18301e-07 2.44444L-7.39974e-07 9.55555ZM1.35484 2.44444C1.35484 1.83111 1.86065 1.33333 2.48387 1.33333L6.57548 1.33333L6.46936 1.62889C6.37226 1.89556 6.32484 2.16889 6.32484 2.44444L6.32484 4.22222C6.32484 5.57111 7.43806 6.66667 8.80871 6.66667L11.5184 6.66667C11.7961 6.66667 12.0739 6.61778 12.3471 6.52444L12.6474 6.42L12.6474 9.55778C12.6474 10.1711 12.1416 10.6689 11.5184 10.6689L2.48613 10.6689C1.8629 10.6689 1.3571 10.1711 1.3571 9.55778L1.3571 2.44667L1.35484 2.44444Z"
                fill="white" />
            <symbol id="studio/publish" viewBox="0 0 12 12" fill="currentColor" xmlns="http://www.w3.org/2000/svg">
                <path class="cls-1"
                    d="M4,0A4,4,0,0,0,0,4V8a4,4,0,0,0,4,4H5.25V5.77L3.57,7.71a.75.75,0,0,1-1.14-1l2.67-3a1.17,1.17,0,0,1,1.8,0L9.57,6.72a.75.75,0,0,1-1.14,1L6.75,5.77V12H8a4,4,0,0,0,4-4V4A4,4,0,0,0,8,0Z" />
            </symbol>

            <symbol id="studio/question-mark" viewBox="0 0 8 12" fill="currentColor" xmlns="http://www.w3.org/2000/svg">
                <path
                    d="M3 1.8C2.44772 1.8 2 2.20294 2 2.7C2 3.19706 1.55228 3.6 1 3.6C0.447715 3.6 0 3.19706 0 2.7C0 1.20883 1.34315 0 3 0H4.61158C6.48295 0 8 1.36534 8 3.04958C8 4.06922 7.43379 5.02139 6.49114 5.58698L5.74217 6.03637C5.2785 6.31456 5 6.78291 5 7.28444V7.5C5 7.99706 4.55229 8.4 4 8.4C3.44772 8.4 3 7.99706 3 7.5V7.28444C3 6.18108 3.6127 5.15071 4.63277 4.53867L5.38174 4.08929C5.76799 3.85754 6 3.46738 6 3.04958C6 2.35946 5.37838 1.8 4.61158 1.8H3Z"
                    fill="currentColor" />
                <path
                    d="M2.66667 10.8C2.66667 10.1373 3.26362 9.6 4 9.6C4.73638 9.6 5.33333 10.1373 5.33333 10.8C5.33333 11.4627 4.73638 12 4 12C3.26362 12 2.66667 11.4627 2.66667 10.8Z"
                    fill="currentColor" />
            </symbol>

            <symbol id="studio/save" viewBox="0 0 18 18" fill="currentColor" xmlns="http://www.w3.org/2000/svg">
                <path
                    d="M4 0H2.75C1.23122 0 0 1.23122 0 2.75V15.25C0 16.7688 1.23122 18 2.75 18H4V9.75C4 9.33579 4.33579 9 4.75 9H13.25C13.6642 9 14 9.33579 14 9.75V18H15.25C16.7688 18 18 16.7688 18 15.25V4.57843C18 3.84908 17.7103 3.14961 17.1945 2.63388L15.3661 0.805456C14.989 0.428296 14.5135 0.172004 14 0.0615099V5.25C14 5.66421 13.6642 6 13.25 6H4.75C4.33579 6 4 5.66421 4 5.25V0Z" />
                <path d="M12.5 0H5.5V4.5H12.5V0Z" />
                <path d="M12.5 18V10.5H5.5V18H12.5Z" />
            </symbol>


            <symbol id="studio/eye-hidden" xmlns="http://www.w3.org/2000/svg" viewBox="0 0 14 13" fill="currentColor">
                <path
                    d="M1.19.14a.5.5,0,0,0-.7,0,.47.47,0,0,0,0,.67l0,0L2.6,2.89A9.67,9.67,0,0,0,.22,5.69a1.64,1.64,0,0,0,0,1.63,8.55,8.55,0,0,0,5,4.13,6.74,6.74,0,0,0,5.38-.77l2.23,2.18a.5.5,0,0,0,.7,0,.46.46,0,0,0,0-.66l0,0ZM7,9.1A2.61,2.61,0,0,1,4.34,6.5h0A2.53,2.53,0,0,1,4.8,5l.72.71a1.52,1.52,0,0,0-.19.75A1.68,1.68,0,0,0,7,8.12a1.63,1.63,0,0,0,.75-.18l.73.71A2.77,2.77,0,0,1,7,9.1Z" />
                <path
                    d="M13.78,5.69C12.1,2.81,9.58,1.3,7,1.3a6.69,6.69,0,0,0-2.65.55l7.79,7.6a10.67,10.67,0,0,0,1.64-2.14A1.62,1.62,0,0,0,13.78,5.69Z" />
            </symbol>

    </defs>
</svg>